# xmcd
#
# Track frame offsets:
#	150
#	20349
#	41253
#	64482
#	92530
#	122200
#	147294
#	179713
#	211498
#	233012
#
# Disc length: 3268 seconds
#
# Revision: 1
# Processed by: cddbd v1.5.2PL0 Copyright (c) Steve Scherf et al.
# Submitted via: audiograbber 1.82.01
#
DISCID=8c0cc20a
DTITLE=Stevie Zee - Caballero
DYEAR=2004
DGENRE=
TTITLE0=The Sky is Crying
TTITLE1=Highway 61
TTITLE2=Bright Lights Big City
TTITLE3=Painted Angel
TTITLE4=Red House
TTITLE5=T-bone Shuffle
TTITLE6=Can You See The Light
TTITLE7=If You Love Me
TTITLE8=Stone Cold Valentine
TTITLE9=Sorry Some Day
EXTD=
EXTT0=
EXTT1=
EXTT2=
EXTT3=
EXTT4=
EXTT5=
EXTT6=
EXTT7=
EXTT8=
EXTT9=
PLAYORDER=
